<svg xmlns="http://www.w3.org/2000/svg" viewBox="0 0 458.05 324.88">
    <defs>
        <style>.cls-1{fill:#fff;}.cls-2{fill:#d51f52;}.cls-3{fill:#154b87;}</style>
    </defs>
    <title>Asset 2</title>
    <g id="Layer_2" data-name="Layer 2">
        <g id="Layer_1-2" data-name="Layer 1">
            <path class="cls-1" d="M0,292.75l22-55.83h8.8l21.94,55.83H41.28l-5.11-13.91H16.59l-5.11,13.91Zm26.42-44.11-8,22.57H34.21Z"/>
            <path class="cls-1" d="M112.12,292.75V255.8L97.73,283.32h-5.9L77.44,255.8v36.95H66.59V236.92H78.23l16.51,31.77,16.67-31.77H123v55.83Z"/>
            <path class="cls-1" d="M197.8,292.75V236.92h24.7c10.3,0,17.77,9.44,17.77,18.56,0,7.16-3.93,13.68-10.07,16.28l13.14,21H231.07L219.35,274H208.66v18.71Zm10.86-28.23h13.6c4,0,7.08-4,7.08-9,0-5.19-3.7-9-7.55-9H208.66Z"/>
            <path class="cls-1" d="M258.66,292.75V237h10.85v55.75Z"/>
            <path class="cls-1" d="M312.44,236.61c9.91,0,17.53,4.95,21,12.19l-8.33,5.74c-2.6-6.29-8.26-8.34-13-8.34-10.31,0-15.5,9.67-15.5,18.56,0,9.91,6.45,18.87,15.73,18.87a13.93,13.93,0,0,0,13.05-8.49l8.89,5.11c-3.39,8.34-13.53,13-22.25,13-15.5,0-26.35-14.63-26.35-28.79C285.7,250.84,295.53,236.61,312.44,236.61Z"/>
            <path class="cls-1" d="M343.09,292.75l22-55.83h8.81l21.94,55.83H384.37l-5.1-13.91H359.69l-5.12,13.91Zm26.43-44.11-8,22.57H377.3Z"/>
            <path class="cls-1" d="M420.53,257v35.78H409.68V236.92h8.42l29.1,36.65V237h10.85v55.75h-8.81Z"/>
            <path class="cls-1" d="M176.82,259.88H140.13v8.81h36.69Zm-36.69,23.36v9.51h41.09v-9.51Zm40.39-46.32H140.13v9.52h40.39Z"/>
            <path class="cls-2" d="M93.49,324.75V305.48h8.16a6.41,6.41,0,0,1,6.14,6.4,6.19,6.19,0,0,1-6,6.4H97.23v6.47ZM97.23,315h4.34c1.38,0,2.42-1.22,2.42-3.12s-1.25-3.12-2.58-3.12H97.23Z"/>
            <path class="cls-2" d="M112,324.75V305.48h8.52a6.41,6.41,0,0,1,6.14,6.4,6,6,0,0,1-3.48,5.62l4.53,7.25h-4.23l-4-6.47h-3.69v6.47Zm3.75-9.75h4.69c1.39,0,2.44-1.38,2.44-3.12a2.93,2.93,0,0,0-2.6-3.12h-4.53Z"/>
            <path class="cls-2" d="M131.88,324.75V305.5h3.75v19.25Z"/>
            <path class="cls-2" d="M145,312.4v12.35h-3.74V305.48h2.9l10,12.65V305.5H158v19.25h-3Z"/>
            <path class="cls-2" d="M178,308.76h-6.13v16h-3.75v-16H162v-3.28h16Z"/>
            <path class="cls-2" d="M188.29,315.11c0-5.13,3.91-9.77,9.2-9.77,5.45,0,9.09,5,9.09,9.83,0,5.1-3.85,9.71-9.17,9.71S188.29,320.05,188.29,315.11Zm9.18,6.46c3.44,0,5.34-3.29,5.34-6.46,0-3.34-2.06-6.43-5.37-6.43s-5.38,3.25-5.38,6.43C192.06,318.45,194.07,321.57,197.47,321.57Z"/>
            <path class="cls-2" d="M214.86,312.4v12.35h-3.75V305.48H214l10,12.65V305.5h3.74v19.25h-3Z"/>
            <path class="cls-2" d="M241.56,324.75V305.48h7c6.3,0,9.5,4.29,9.5,9.6,0,5.84-3.72,9.67-9.5,9.67Zm7-16H245.3v12.7h3.26c3.69,0,5.72-2.74,5.72-6.38S252.2,308.76,248.56,308.76Z"/>
            <path class="cls-2" d="M276.05,321.46v3.29H262.67V305.48h13.14v3.28h-9.4v4.64h8.12v3h-8.12v5Z"/>
            <path class="cls-2" d="M296.4,324.75V312l-5,9.5h-2l-5-9.5v12.76h-3.74V305.48h4l5.69,11,5.75-11h4v19.27Z"/>
            <path class="cls-2" d="M303.83,324.75l7.6-19.27h3L322,324.75h-4l-1.76-4.81h-6.76l-1.77,4.81ZM313,309.52l-2.77,7.79h5.46Z"/>
            <path class="cls-2" d="M329.47,312.4v12.35h-3.74V305.48h2.9l10,12.65V305.5h3.75v19.25h-3Z"/>
            <path class="cls-2" d="M348.06,324.75V305.48h7c6.29,0,9.49,4.29,9.49,9.6,0,5.84-3.72,9.67-9.49,9.67Zm7-16h-3.26v12.7h3.26c3.69,0,5.72-2.74,5.72-6.38S358.7,308.76,355.07,308.76Z"/>
            <rect class="cls-2" x="36.73" y="314.95" width="41.91" height="2.46"/>
            <rect class="cls-2" x="379.41" y="314.95" width="41.91" height="2.46"/>
            <path class="cls-3" d="M185.09,14.16a5.26,5.26,0,0,0-3.31,8.2c21,29.8,167.55,230.64,168.43,230S211.59,46.43,190.39,16.3A5.28,5.28,0,0,0,185.09,14.16Zm24.25,38.19c-.28.19-21.41-27.59-24.36-31.78a1.44,1.44,0,0,1,.64-1.9,1.48,1.48,0,0,1,2,0C190.6,22.94,209.61,52.16,209.34,52.35Z"/>
            <path class="cls-2" d="M134.9,214.23q-.72,0-1.44,0c-10.35-.43-19-5.8-23-14.37-5.71-12-2-28.3,10.31-44.7s40.33-36.32,74.39-53.23c2.56-50.11-5.18-99.2-5.31-100a1.66,1.66,0,0,1,3.28-.53c.5,3.13,7.89,50,5.61,98.75,6.09-3,12.36-5.8,18.75-8.52,35.37-15,79.55-27.5,97.46-17.36,6,3.41,11.74,11,4.91,27.69a1.65,1.65,0,0,1-3.06-1.26c4.75-11.63,3.58-19.55-3.48-23.54-13.9-7.87-51-1-94.53,17.52-6.92,2.94-13.69,6-20.25,9.25-1.64,28.81-6.8,57.9-18.88,78.66C168.07,202.51,151.43,214.23,134.9,214.23Zm60-108.53c-32.84,16.49-59.69,35.6-71.52,51.41-11.5,15.38-15.14,30.44-10,41.3,3.53,7.43,11.07,12.1,20.17,12.48,15.76.64,31.89-10.55,43.18-30C188.19,161.3,193.21,133.53,194.93,105.7Z"/>
            <polygon class="cls-2" points="309.66 96.61 313.65 108.87 326.54 108.87 316.11 116.45 320.09 128.71 309.66 121.13 299.23 128.71 303.21 116.45 292.79 108.87 305.67 108.87 309.66 96.61"/>
            <path class="cls-3" d="M189.74,15.56l-1.19,4.51c2.12,3.13,6.47,9.77,10.66,16.22l4.37-.94c-5.94-8.63-10.52-15.24-13.19-19A6.62,6.62,0,0,0,189.74,15.56Z"/>
        </g>
    </g>
</svg>